<mxfile host="app.diagrams.net" modified="2023-11-21T15:37:44.885Z" agent="Mozilla/5.0 (X11; Linux x86_64; rv:109.0) Gecko/20100101 Firefox/119.0" version="22.1.3" etag="QvEOXTRuXVlEUVkupc0m" type="github">
  <diagram name="Page-1" id="sXxK-9ORvG66VkrLFLbz">
    <mxGraphModel>
      <root>
        <mxCell id="0" />
        <mxCell id="1" parent="0" />
      </root>
    </mxGraphModel>
  </diagram>
</mxfile>
